<svg width="176" height="129" viewBox="0 0 176 129" fill="none" xmlns="http://www.w3.org/2000/svg">
<g id="Mask group">
<mask id="mask0_1360_131" style="mask-type:alpha" maskUnits="userSpaceOnUse" x="0" y="0" width="176" height="129">
<path id="Rectangle 23936" d="M0 16.4902C0 7.65368 7.16344 0.490234 16 0.490234H176V128.49H16C7.16344 128.49 0 121.327 0 112.49V16.4902Z" fill="#D9D9D9"/>
</mask>
<g mask="url(#mask0_1360_131)">
<g id="Mask group_2">
<mask id="mask1_1360_131" style="mask-type:alpha" maskUnits="userSpaceOnUse" x="-10" y="0" width="197" height="129">
<rect id="Rectangle 25139" x="-10" y="0.00634766" width="196.456" height="128.484" fill="#D9D9D9"/>
</mask>
<g mask="url(#mask1_1360_131)">
<rect id="Rectangle 25140" x="-10" y="0.00634766" width="196.456" height="128.484" fill="#FFF4DE"/>
<g id="Group 2609783">
<g id="background-complete">
<path id="Vector" d="M194.348 50.1852C191.033 46.6082 185.279 43.5422 178.332 42.9824C171.186 42.4082 164.177 44.5269 158.57 47.1594C152.938 49.7921 148.127 53.0129 144.363 56.6704C142.17 58.812 139.93 61.2981 135.805 61.9957C131.922 62.6503 127.84 61.4216 124.709 59.9345C121.579 58.4474 118.766 56.6331 114.992 55.7862C105.16 53.5785 94.1922 58.8723 83.982 57.345C75.1877 56.0302 70.9777 50.4551 65.5126 46.2493C56.4863 39.3249 40.8016 35.323 26.0356 36.7757C11.2695 38.2283 0.0316303 53.2742 -2 61.8666L200.258 61.8264C198.989 57.8302 197.678 53.7594 194.348 50.1852Z" fill="#BFE5CF"/>
<path id="Vector_2" d="M61.4749 18.8555C61.5852 18.0455 60.4443 17.3807 59.5849 17.311C59.1747 17.3276 58.7641 17.2925 58.3627 17.2065C57.5237 16.9162 57.2014 15.8275 56.3682 15.482C55.7557 15.2237 55.0502 15.453 54.4579 15.752C53.8657 16.0511 53.2764 16.4285 52.6115 16.4691C52.0309 16.5069 51.4067 16.292 50.9016 16.5736C50.5271 16.7856 50.3209 17.2181 49.9813 17.4736C49.6218 17.6997 49.204 17.8158 48.7794 17.8075C48.3573 17.7972 47.937 17.8651 47.5397 18.0078C47.3427 18.0846 47.1757 18.2231 47.0638 18.4026C46.9518 18.582 46.9009 18.7928 46.9184 19.0036L61.4749 18.8555Z" fill="#F0F4F7"/>
<path id="Vector_3" d="M100.052 26.5574C100.162 25.7474 99.0214 25.0826 98.1621 25.0129C97.7519 25.0295 97.3413 24.9944 96.9398 24.9084C96.1008 24.6181 95.7786 23.5294 94.9454 23.1839C94.3328 22.9256 93.6273 23.1549 93.0351 23.4539C92.4429 23.753 91.8535 24.1304 91.1887 24.1739C90.6081 24.2088 89.9839 23.9968 89.4816 24.2784C89.1042 24.4875 88.901 24.92 88.5613 25.1784C88.1993 25.4003 87.781 25.5132 87.3565 25.5036C86.9342 25.4928 86.5136 25.5617 86.1169 25.7068C85.9203 25.7835 85.7538 25.9215 85.6419 26.1004C85.53 26.2792 85.4787 26.4894 85.4956 26.6997L100.052 26.5574Z" fill="#F0F4F7"/>
<path id="Vector_4" d="M163.303 26.0813C163.503 24.6297 161.448 23.4249 159.901 23.3001C159.163 23.242 158.4 23.3552 157.7 23.1114C156.187 22.583 155.584 20.6292 154.106 20.005C153.003 19.5405 151.734 19.9556 150.663 20.4927C149.592 21.0298 148.535 21.7091 147.342 21.7875C146.302 21.8514 145.173 21.4682 144.261 21.9762C143.585 22.3536 143.231 23.1375 142.604 23.5962C141.977 24.0549 141.196 24.142 140.438 24.1768C139.68 24.2117 138.893 24.2262 138.202 24.5426C137.511 24.8591 136.942 25.5878 137.085 26.3339L163.303 26.0813Z" fill="white"/>
<path id="Vector_5" d="M103.626 11.6295C103.878 9.78597 101.28 8.27052 99.3234 8.11375C98.3915 8.03826 97.4248 8.18052 96.5422 7.87278C94.629 7.20506 93.8655 4.73447 91.9988 3.94772C90.6024 3.36708 88.9969 3.88385 87.644 4.56319C86.2912 5.24252 84.9557 6.10186 83.4374 6.19476C82.1222 6.27895 80.6939 5.79122 79.5442 6.43572C78.6733 6.91184 78.2378 7.8873 77.4481 8.46793C76.6585 9.04856 75.6685 9.15888 74.7076 9.21114C73.7466 9.2634 72.7566 9.27211 71.8828 9.67274C71.0089 10.0734 70.289 10.9966 70.469 11.9401L103.626 11.6295Z" fill="white"/>
</g>
<g id="Road">
<path id="Vector_6" d="M-1.58545 95.7225L-0.184825 87.254L79.7256 90.7C81.458 90.7754 83.1695 90.4154 84.5154 89.6926C85.8614 88.9697 86.7419 87.9376 86.9798 86.804L92.1903 61.9355H110.306L118.141 87.3701C118.467 88.4288 119.356 89.3758 120.649 90.0398C121.941 90.7038 123.552 91.041 125.189 90.9903L200.259 88.7259V97.6153L134.346 105.018C132.805 105.119 131.31 105.424 129.953 105.915C128.595 106.406 127.402 107.073 126.446 107.876C125.489 108.679 124.789 109.601 124.387 110.586C123.984 111.572 123.889 112.601 124.105 113.612L127.188 128.098H80.7254L82.6062 114.834C82.9542 112.384 81.876 109.938 79.5901 107.993C77.3042 106.047 73.9816 104.747 70.2956 104.356L-1.58545 95.7225Z" fill="#B1E2F1"/>
<path id="Vector_7" d="M168.332 128.052C168.342 128.107 167.852 128.156 166.929 128.201C166.006 128.246 164.644 128.286 162.891 128.32C159.384 128.39 154.309 128.44 148.037 128.47C135.496 128.534 118.169 128.529 99.0353 128.475C79.8948 128.385 62.5681 128.306 50.0241 128.246C43.7553 128.196 38.683 128.156 35.1731 128.131C33.423 128.111 32.061 128.097 31.135 128.087C30.6768 128.077 30.3236 128.072 30.0849 128.067C29.8494 128.062 29.7285 128.052 29.7285 128.052C29.7285 128.052 29.8494 128.042 30.0849 128.042C30.3236 128.042 30.6768 128.042 31.135 128.037C32.061 128.037 33.423 128.037 35.1731 128.037C38.683 128.047 43.7553 128.057 50.0241 128.072C62.5681 128.111 79.8948 128.166 99.0353 128.226C118.169 128.256 135.493 128.281 148.037 128.296C154.306 128.266 159.378 128.241 162.888 128.226C164.641 128.206 166.003 128.181 166.926 128.156C167.387 128.141 167.741 128.126 167.976 128.111C168.212 128.097 168.332 128.077 168.329 128.057L168.332 128.052Z" fill="#465159"/>
<path id="Vector_8" d="M104.704 84.8561H100.321L101.361 72.4539L103.263 72.4568L104.704 84.8561Z" fill="#F0F4F7"/>
<path id="Vector_9" d="M106.28 113.481H100.321L101.383 98.1235L104.642 98.1293L106.28 113.481Z" fill="#F0F4F7"/>
<path id="Vector_10" d="M133.143 98.7534L132.72 96.3525L155.941 95.0142L156.571 96.608L133.143 98.7534Z" fill="#F0F4F7"/>
<path id="Vector_11" d="M73.2907 97.3223L73.7135 94.9213L50.4931 93.5801L49.8633 95.1768L73.2907 97.3223Z" fill="#F0F4F7"/>
<path id="Vector_12" d="M21.8419 93.5802L22.1766 91.6641L-0.598952 89.748L-0.889648 91.4987L21.8419 93.5802Z" fill="#F0F4F7"/>
</g>
<g id="Sign">
<path id="Vector_13" d="M136.516 85.5062H134.02V9.79182C134.02 9.46073 134.151 9.14321 134.385 8.90909C134.62 8.67498 134.937 8.54346 135.268 8.54346C135.599 8.54422 135.916 8.67599 136.15 8.90994C136.384 9.14389 136.516 9.46097 136.516 9.79182V85.5062Z" fill="#465159"/>
<path id="Vector_14" d="M123.429 40.4231L130.347 39.7815L147.45 48.9874L146.306 51.1096L144.149 51.1009L145.586 52.4509L144.021 55.3569L127.029 46.212L123.429 40.4231Z" fill="#52BCE0"/>
<path id="Vector_15" opacity="0.3" d="M123.429 40.4231L130.347 39.7815L147.45 48.9874L146.306 51.1096L144.149 51.1009L145.586 52.4509L144.021 55.3569L127.029 46.212L123.429 40.4231Z" fill="#1B232E"/>
<path id="Vector_16" d="M123.217 39.5435L128.1 39.0906C128.65 39.0391 129.202 39.1512 129.688 39.4128L146.045 48.2152L144.901 50.3403H142.744L144.181 51.6903L142.616 54.5935L126.283 45.8027C125.853 45.5705 125.491 45.2304 125.232 44.8156L122.663 40.6699C122.596 40.5634 122.557 40.4414 122.551 40.3157C122.544 40.1901 122.57 40.0648 122.625 39.9519C122.681 39.839 122.765 39.7422 122.868 39.6707C122.972 39.5992 123.092 39.5554 123.217 39.5435Z" fill="#52BCE0"/>
<g id="Group" opacity="0.2">
<path id="Vector_17" d="M141.914 54.2334C141.854 53.9846 141.756 53.7465 141.623 53.5279C141.214 52.9628 140.694 52.4859 140.096 52.1257C138.204 50.8007 136.184 49.6686 134.067 48.7465C132.827 48.2036 131.608 47.7797 130.51 47.3616C129.53 47.0061 128.571 46.5941 127.639 46.1278C127.011 45.8107 126.412 45.4376 125.851 45.013C125.65 44.8649 125.508 44.7227 125.406 44.6501C125.353 44.6093 125.304 44.5626 125.261 44.5107C125.261 44.5107 125.482 44.6791 125.885 44.9636C126.456 45.3691 127.059 45.7265 127.688 46.032C128.623 46.4837 129.581 46.8839 130.559 47.231C131.657 47.6403 132.882 48.0613 134.127 48.6071C136.255 49.5333 138.277 50.6837 140.16 52.0386C140.762 52.4108 141.278 52.9054 141.676 53.4902C141.775 53.6562 141.846 53.8378 141.885 54.0273C141.897 54.0757 141.905 54.1253 141.908 54.1754C141.914 54.216 141.917 54.2334 141.914 54.2334Z" fill="#1B232E"/>
<path id="Vector_18" d="M123.798 39.5811C123.722 39.8912 123.714 40.214 123.775 40.5275C123.85 40.8931 124 41.2392 124.216 41.5436C124.509 41.9418 124.857 42.2966 125.25 42.5974C126.267 43.3972 127.334 44.1331 128.443 44.8009C129.694 45.5616 131.114 46.3222 132.621 47.0915L140.337 51.034C141.31 51.5421 142.105 51.9514 142.66 52.2446L143.29 52.5814C143.364 52.6186 143.436 52.6603 143.505 52.7062C143.425 52.6806 143.348 52.6476 143.275 52.6075L142.634 52.2969L140.279 51.1356L132.557 47.2164C131.05 46.4441 129.627 45.6777 128.376 44.8938C127.263 44.218 126.197 43.4693 125.183 42.6526C124.786 42.3423 124.437 41.9755 124.146 41.5639C123.929 41.2484 123.783 40.89 123.717 40.513C123.673 40.275 123.673 40.031 123.717 39.793C123.737 39.7201 123.765 39.6492 123.798 39.5811Z" fill="#1B232E"/>
<path id="Vector_19" d="M130.522 42.7427C130.467 42.6784 130.419 42.6094 130.376 42.5366C130.244 42.3349 130.099 42.1411 129.944 41.956C129.375 41.2888 128.667 40.7529 127.871 40.3853C127.611 40.2605 127.339 40.1632 127.058 40.095C126.762 40.02 126.45 40.0341 126.161 40.1357C126.011 40.187 125.875 40.2752 125.768 40.3924C125.66 40.5096 125.584 40.6519 125.546 40.8063C125.514 41.1503 125.619 41.493 125.836 41.7614C126.672 42.9663 127.999 43.9475 129.468 44.7807C129.837 44.9898 130.205 45.1959 130.571 45.3817C130.919 45.5748 131.306 45.6861 131.703 45.7068C131.889 45.7161 132.075 45.6825 132.246 45.6085C132.418 45.5345 132.569 45.4221 132.69 45.2801C132.9 44.9846 132.985 44.6188 132.928 44.2611C132.872 43.9141 132.75 43.5811 132.568 43.2798C132.397 42.9895 132.208 42.6992 132.025 42.4292C131.682 41.9328 131.293 41.4693 130.864 41.0444C130.237 40.4311 129.517 39.9207 128.73 39.5318C128.44 39.3954 128.231 39.2996 128.077 39.2415C128 39.2121 127.924 39.1782 127.851 39.1399C127.932 39.1572 128.012 39.1815 128.089 39.2125C128.316 39.2906 128.539 39.3808 128.757 39.4825C129.561 39.8544 130.298 40.3577 130.937 40.9718C131.379 41.3953 131.779 41.86 132.133 42.3595C132.319 42.6295 132.51 42.9111 132.687 43.2304C132.879 43.5448 133.009 43.8925 133.071 44.2553C133.134 44.6518 133.039 45.0574 132.806 45.3846C132.672 45.5441 132.503 45.6707 132.313 45.7547C132.122 45.8388 131.914 45.878 131.706 45.8694C131.284 45.8524 130.871 45.7371 130.501 45.5326C130.127 45.3439 129.761 45.1378 129.389 44.9288C127.912 44.0927 126.568 43.0969 125.72 41.8572C125.488 41.5557 125.384 41.1752 125.43 40.7976C125.473 40.6223 125.56 40.4608 125.682 40.3279C125.804 40.195 125.958 40.0949 126.129 40.037C126.442 39.9293 126.779 39.9162 127.099 39.9992C127.385 40.0657 127.664 40.163 127.929 40.2895C128.96 40.766 129.826 41.538 130.417 42.5076C130.457 42.5838 130.491 42.6623 130.522 42.7427Z" fill="#1B232E"/>
<path id="Vector_20" d="M145.551 49.1819C145.551 49.1964 145.316 49.0832 144.872 48.9932C144.238 48.8925 143.593 48.8925 142.959 48.9932C142.155 49.0832 141.217 49.3329 140.111 49.3445C139.536 49.3475 138.965 49.2492 138.424 49.0542C137.846 48.8441 137.303 48.5506 136.81 48.1832C135.871 47.4654 135.074 46.5794 134.458 45.5704C133.959 44.7526 133.509 43.9052 133.111 43.033C132.76 42.2956 132.473 41.7034 132.258 41.2911L132.014 40.8266C131.981 40.7749 131.955 40.7193 131.936 40.6611C131.975 40.7078 132.01 40.7584 132.04 40.8121C132.107 40.9137 132.197 41.0647 132.31 41.2621C132.539 41.6598 132.844 42.2463 133.207 42.9779C133.616 43.8389 134.072 44.6763 134.575 45.4862C135.187 46.4751 135.974 47.3446 136.897 48.0526C137.818 48.7659 138.944 49.1639 140.108 49.1877C141.176 49.1877 142.14 48.9496 142.944 48.8713C143.589 48.7827 144.244 48.8043 144.881 48.9351C145.052 48.9742 145.22 49.0276 145.383 49.0948C145.443 49.1161 145.499 49.1454 145.551 49.1819Z" fill="#1B232E"/>
<path id="Vector_21" d="M139.562 46.2584C139.502 46.2423 139.444 46.221 139.388 46.1946C139.278 46.1481 139.118 46.0755 138.912 45.971C138.706 45.8665 138.465 45.733 138.189 45.5588C138.05 45.4736 137.904 45.3768 137.753 45.2684C137.578 45.1681 137.429 45.0279 137.318 44.8591C137.284 44.8046 137.268 44.7402 137.275 44.676C137.281 44.6119 137.309 44.5517 137.353 44.5049C137.403 44.4656 137.462 44.4392 137.525 44.4281C137.588 44.4169 137.652 44.4214 137.713 44.4411C137.939 44.502 138.151 44.5775 138.381 44.6559C138.833 44.8156 139.312 45.0072 139.803 45.2365C140.317 45.4739 140.817 45.7394 141.301 46.032C141.58 46.1721 141.82 46.3785 142.001 46.6329C142.05 46.7056 142.083 46.7886 142.096 46.8757C142.108 46.9628 142.101 47.0516 142.075 47.1355C142.048 47.2194 142.003 47.2961 141.942 47.36C141.882 47.4238 141.807 47.473 141.725 47.5039C141.422 47.6094 141.1 47.6451 140.781 47.6084C140.48 47.5937 140.18 47.5549 139.884 47.4923C139.325 47.3794 138.783 47.1888 138.276 46.9262C137.557 46.555 136.92 46.0433 136.402 45.4215C135.885 44.7997 135.497 44.0803 135.263 43.3059C135.21 43.1384 135.169 42.9677 135.138 42.795C135.123 42.7351 135.115 42.6737 135.115 42.6121C135.129 42.6121 135.175 42.8588 135.321 43.2885C135.525 43.894 135.818 44.4655 136.192 44.9839C136.752 45.7499 137.485 46.3726 138.331 46.8013C138.828 47.0544 139.358 47.238 139.905 47.3471C140.192 47.4059 140.483 47.4428 140.776 47.4574C141.069 47.4932 141.367 47.4614 141.647 47.3645C141.71 47.3391 141.767 47.2998 141.814 47.2496C141.861 47.1994 141.896 47.1395 141.917 47.0742C141.935 47.0111 141.938 46.9449 141.928 46.8802C141.917 46.8154 141.893 46.7538 141.856 46.6997C141.688 46.4657 141.467 46.2755 141.211 46.1452C140.731 45.8551 140.237 45.5896 139.731 45.3497C139.246 45.1204 138.772 44.9259 138.325 44.7691C138.102 44.6878 137.878 44.6065 137.675 44.5514C137.632 44.5353 137.586 44.5296 137.541 44.5346C137.496 44.5397 137.452 44.5553 137.414 44.5804C137.386 44.6102 137.369 44.6485 137.366 44.6891C137.363 44.7297 137.374 44.7702 137.396 44.8039C137.499 44.9602 137.636 45.0904 137.797 45.1843C137.942 45.2946 138.087 45.3904 138.218 45.4746C138.488 45.6517 138.729 45.7939 138.926 45.9042C139.124 46.0146 139.281 46.0988 139.388 46.1539C139.45 46.1808 139.509 46.216 139.562 46.2584Z" fill="#1B232E"/>
</g>
<path id="Vector_22" d="M150.533 33.3392L150.495 33.3073L145.603 30.4041L126.228 29.0483L126.059 31.4522L127.888 32.6134L125.955 32.9879L125.723 36.2801L143.873 37.5488C144.585 37.5985 145.298 37.4614 145.94 37.1511L149.531 35.4092C150.286 35.0463 150.533 34.2043 150.533 33.3392Z" fill="#52BCE0"/>
<path id="Vector_23" opacity="0.3" d="M150.533 33.3392L150.495 33.3073L145.603 30.4041L126.228 29.0483L126.059 31.4522L127.888 32.6134L125.955 32.9879L125.723 36.2801L143.873 37.5488C144.585 37.5985 145.298 37.4614 145.94 37.1511L149.531 35.4092C149.866 35.1826 150.134 34.872 150.31 34.5086C150.486 34.1452 150.563 33.7418 150.533 33.3392Z" fill="#1B232E"/>
<path id="Vector_24" d="M150.243 32.9504L146.358 29.9572C145.922 29.6182 145.394 29.4162 144.843 29.3766L126.312 28.0789L126.144 30.4856L127.973 31.6294L126.039 32.0039L125.807 35.2961L144.312 36.5938C144.8 36.6277 145.288 36.5336 145.728 36.3209L150.115 34.1987C150.228 34.1433 150.324 34.0602 150.396 33.9572C150.467 33.8542 150.512 33.7347 150.524 33.6099C150.537 33.4851 150.518 33.3591 150.469 33.2437C150.42 33.1284 150.342 33.0274 150.243 32.9504Z" fill="#52BCE0"/>
<g id="Group_2" opacity="0.2">
<path id="Vector_25" d="M126.579 35.3803C126.579 35.3803 126.579 35.3629 126.608 35.3368C126.638 35.2963 126.671 35.2584 126.707 35.2236C126.842 35.0862 126.999 34.9715 127.171 34.8839C127.82 34.5973 128.523 34.4528 129.233 34.46C131.548 34.3179 133.873 34.4259 136.165 34.7823C137.509 34.9855 138.778 35.2845 139.916 35.5255C140.929 35.7547 141.953 35.9282 142.985 36.0452C143.68 36.1219 144.38 36.1423 145.078 36.1061C145.572 36.08 145.844 36.0393 145.847 36.0568C145.783 36.0759 145.717 36.0886 145.65 36.0945C145.458 36.1284 145.264 36.1517 145.069 36.1642C144.368 36.2282 143.663 36.2282 142.962 36.1642C141.924 36.0601 140.894 35.8963 139.876 35.6735C138.714 35.4384 137.466 35.1452 136.13 34.942C133.847 34.5923 131.534 34.4707 129.227 34.5791C128.532 34.5646 127.84 34.69 127.195 34.9478C126.968 35.059 126.76 35.205 126.579 35.3803Z" fill="#1B232E"/>
<path id="Vector_26" d="M149.726 32.6631C149.714 32.7455 149.692 32.8263 149.662 32.904C149.575 33.1296 149.447 33.3372 149.285 33.5166C149.025 33.7981 148.71 34.0225 148.359 34.1756C147.895 34.367 147.406 34.4902 146.907 34.5414C145.613 34.6905 144.31 34.7526 143.008 34.7272C141.542 34.7098 139.931 34.5995 138.244 34.4369L129.619 33.6037L127.006 33.3308L126.295 33.2495C126.212 33.2439 126.131 33.2313 126.051 33.2118C126.133 33.2041 126.215 33.2041 126.298 33.2118L127.012 33.264L129.625 33.4876L138.256 34.2772C139.939 34.4311 141.545 34.5443 143.008 34.5676C144.304 34.6002 145.6 34.5497 146.89 34.4166C147.387 34.3724 147.876 34.258 148.341 34.0769C148.686 33.936 148.998 33.7243 149.256 33.4556C149.466 33.2272 149.626 32.9572 149.726 32.6631Z" fill="#1B232E"/>
<path id="Vector_27" d="M142.349 31.7428C142.419 31.6965 142.492 31.6548 142.567 31.618C142.783 31.5132 143.005 31.4211 143.232 31.3422C144.072 31.0588 144.964 30.9665 145.844 31.0722C146.141 31.1042 146.433 31.1675 146.715 31.2609C147.031 31.3608 147.31 31.5517 147.517 31.8096C147.63 31.9504 147.707 32.1176 147.739 32.2956C147.771 32.4737 147.757 32.657 147.7 32.8286C147.534 33.1713 147.24 33.4351 146.881 33.5631C145.499 34.1437 143.833 34.2801 142.134 34.196C141.707 34.1756 141.289 34.1553 140.874 34.1147C140.454 34.0901 140.044 33.9689 139.678 33.7605C139.497 33.6567 139.343 33.5126 139.226 33.3394C139.11 33.1662 139.035 32.9686 139.008 32.7618C138.986 32.3613 139.123 31.9683 139.388 31.6673C139.633 31.3931 139.929 31.1684 140.259 31.0054C140.569 30.8428 140.88 30.7151 141.185 30.5757C141.747 30.3433 142.331 30.1644 142.927 30.0415C143.795 29.8627 144.687 29.8313 145.566 29.9486C145.804 29.9777 146.041 30.0203 146.274 30.0764C146.357 30.0915 146.439 30.1138 146.518 30.1432C146.434 30.1356 146.351 30.1229 146.268 30.1054C146.109 30.0764 145.868 30.0386 145.56 30.0067C144.687 29.9148 143.805 29.9618 142.947 30.1461C142.357 30.2752 141.78 30.4579 141.223 30.6918C140.932 30.8225 140.613 30.9618 140.308 31.1215C139.995 31.2796 139.714 31.4953 139.481 31.7573C139.241 32.0296 139.117 32.3849 139.135 32.7473C139.162 32.9323 139.23 33.1087 139.336 33.2628C139.442 33.4169 139.582 33.5445 139.745 33.6356C140.091 33.8304 140.478 33.9436 140.874 33.9666C141.284 34.0043 141.705 34.0247 142.128 34.045C143.815 34.1292 145.461 34.0073 146.808 33.4353C147.135 33.324 147.404 33.0896 147.56 32.7821C147.612 32.6313 147.624 32.4699 147.596 32.313C147.568 32.1562 147.501 32.0089 147.401 31.885C147.211 31.6448 146.954 31.4661 146.663 31.3712C146.391 31.2764 146.11 31.2121 145.824 31.1796C144.954 31.0636 144.07 31.1379 143.232 31.3973C142.941 31.4902 142.715 31.586 142.564 31.647C142.495 31.6845 142.423 31.7165 142.349 31.7428Z" fill="#1B232E"/>
<path id="Vector_28" d="M126.205 29.1647C126.266 29.1627 126.328 29.1685 126.387 29.1821C126.562 29.211 126.733 29.2557 126.898 29.3157C127.506 29.5447 128.071 29.8755 128.568 30.294C129.215 30.7963 129.894 31.5046 130.797 32.0795C131.795 32.6814 132.959 32.9461 134.119 32.8343C135.282 32.7324 136.418 32.4186 137.469 31.9082C138.326 31.4916 139.16 31.0274 139.966 30.5176C140.662 30.0937 141.234 29.7598 141.638 29.5479C141.841 29.4405 142.001 29.3621 142.108 29.3128C142.162 29.2817 142.22 29.2573 142.279 29.2402C142.231 29.2788 142.178 29.3119 142.123 29.3389L141.667 29.6002C141.272 29.8266 140.712 30.1808 140.024 30.6105C139.222 31.1343 138.389 31.6093 137.53 32.033C136.469 32.5578 135.32 32.8807 134.142 32.9852C133.53 33.0318 132.915 32.9878 132.316 32.8546C131.756 32.7303 131.222 32.5082 130.739 32.1985C129.819 31.6179 129.148 30.8863 128.516 30.3782C128.032 29.9578 127.484 29.6177 126.893 29.3708C126.667 29.2895 126.438 29.2207 126.205 29.1647Z" fill="#1B232E"/>
<path id="Vector_29" d="M132.824 29.8905C132.885 29.8847 132.946 29.8847 133.007 29.8905C133.126 29.8905 133.297 29.9166 133.529 29.9282C133.762 29.9398 134.035 29.9485 134.357 29.9427C134.519 29.9427 134.691 29.9427 134.874 29.9195C135.059 29.9231 135.244 29.8855 135.414 29.8092C135.451 29.7933 135.482 29.765 135.501 29.729C135.52 29.6931 135.526 29.6517 135.518 29.6118C135.501 29.5363 135.414 29.4811 135.315 29.4463C135.112 29.3853 134.879 29.336 134.65 29.2837C134.183 29.1821 133.68 29.095 133.146 29.0282C132.612 28.9615 132.052 28.9237 131.468 28.9121C131.183 28.883 130.894 28.9249 130.629 29.034C130.569 29.0613 130.515 29.1013 130.471 29.1514C130.427 29.2016 130.395 29.2606 130.377 29.3244C130.361 29.3897 130.361 29.4575 130.374 29.5231C130.388 29.5888 130.415 29.6507 130.455 29.7047C130.64 29.9353 130.876 30.1209 131.143 30.2476C131.4 30.3935 131.668 30.5187 131.944 30.6221C132.465 30.8222 133.009 30.9511 133.564 31.0053C134.509 31.0935 135.462 30.9582 136.345 30.6105C136.941 30.3745 137.497 30.0495 137.994 29.6466C138.349 29.3563 138.52 29.1763 138.529 29.185C138.537 29.1937 138.494 29.2373 138.412 29.3273C138.299 29.4621 138.178 29.5901 138.05 29.7105C137.439 30.2408 136.727 30.6427 135.958 30.8921C135.188 31.1415 134.376 31.2333 133.57 31.1621C133.001 31.1116 132.441 30.9837 131.907 30.7817C131.624 30.6761 131.35 30.548 131.088 30.3985C130.799 30.2656 130.545 30.0667 130.348 29.8179C130.296 29.7463 130.26 29.6643 130.243 29.5776C130.226 29.4909 130.228 29.4015 130.249 29.3157C130.273 29.2321 130.315 29.1548 130.372 29.0891C130.43 29.0234 130.5 28.971 130.58 28.9353C130.867 28.8157 131.179 28.7688 131.488 28.7989C132.055 28.8105 132.62 28.8531 133.181 28.9266C133.718 28.9963 134.226 29.0892 134.694 29.1966C134.932 29.2518 135.149 29.3011 135.373 29.3708C135.434 29.3871 135.491 29.4181 135.538 29.461C135.585 29.504 135.621 29.5577 135.643 29.6176C135.656 29.6807 135.648 29.7463 135.619 29.8041C135.591 29.8619 135.544 29.9086 135.486 29.9369C135.304 30.0184 135.105 30.0571 134.905 30.0502C134.72 30.0502 134.545 30.0502 134.383 30.0502C134.058 30.0502 133.779 30.0298 133.553 30.0095C133.326 29.9892 133.149 29.966 133.03 29.9456C132.959 29.9375 132.89 29.919 132.824 29.8905Z" fill="#1B232E"/>
</g>
<path id="Vector_30" d="M122.837 20.3826L128.759 24.0174L148.167 23.3206L148.083 20.911L146.143 19.9617L148.028 19.3869L147.909 16.0889L128.626 16.7798L122.837 20.3826Z" fill="#52BCE0"/>
<path id="Vector_31" opacity="0.3" d="M122.837 20.3826L128.759 24.0174L148.167 23.3206L148.083 20.911L146.143 19.9617L148.028 19.3869L147.909 16.0889L128.626 16.7798L122.837 20.3826Z" fill="#1B232E"/>
<path id="Vector_32" d="M122.256 21.0793L126.437 23.6428C126.907 23.9325 127.453 24.076 128.005 24.055L146.567 23.3902L146.48 20.9806L144.541 20.0341L146.425 19.4535L146.309 16.1555L127.772 16.8232C127.283 16.8403 126.806 16.9855 126.39 17.2442L122.253 19.8193C122.146 19.8859 122.058 19.9788 121.996 20.0892C121.935 20.1996 121.903 20.3238 121.903 20.4501C121.904 20.5764 121.936 20.7005 121.998 20.8106C122.06 20.9207 122.149 21.0132 122.256 21.0793Z" fill="#52BCE0"/>
<g id="Group_3" opacity="0.2">
<path id="Vector_33" d="M145.522 16.1643C145.516 16.1812 145.507 16.1969 145.496 16.2108C145.472 16.2537 145.443 16.2945 145.412 16.3327C145.291 16.4836 145.147 16.6148 144.985 16.7217C144.37 17.0729 143.687 17.2905 142.982 17.3604C140.693 17.7454 138.37 17.8836 136.052 17.7727C134.693 17.7117 133.41 17.5462 132.243 17.4272C131.212 17.3052 130.175 17.2383 129.137 17.2269C128.438 17.2234 127.74 17.2768 127.049 17.3865C126.562 17.4649 126.295 17.5346 126.289 17.5172C126.352 17.4943 126.416 17.4749 126.48 17.4591C126.608 17.4272 126.794 17.372 127.038 17.3285C127.73 17.1961 128.432 17.1262 129.137 17.1194C130.179 17.1129 131.221 17.1662 132.258 17.2791C133.419 17.3923 134.708 17.552 136.058 17.613C138.367 17.7208 140.68 17.5973 142.965 17.2443C143.66 17.1854 144.336 16.988 144.953 16.6637C145.167 16.5263 145.358 16.358 145.522 16.1643Z" fill="#1B232E"/>
<path id="Vector_34" d="M122.791 21.3116C122.793 21.228 122.805 21.1451 122.828 21.0648C122.891 20.8316 122.996 20.6121 123.139 20.4174C123.366 20.1088 123.656 19.8516 123.99 19.6626C124.433 19.4224 124.91 19.2474 125.403 19.1429C126.673 18.8654 127.96 18.6715 129.256 18.5623C130.707 18.4258 132.333 18.3648 134.026 18.3387L142.695 18.2429H145.322H146.036C146.119 18.2361 146.203 18.2361 146.286 18.2429C146.203 18.2564 146.12 18.2632 146.036 18.2632L145.322 18.2836L142.709 18.3387L134.043 18.4636C132.351 18.4897 130.742 18.5448 129.285 18.6755C127.988 18.7892 126.699 18.9841 125.427 19.259C124.94 19.3561 124.47 19.5213 124.03 19.7497C123.702 19.9266 123.414 20.1698 123.185 20.4638C122.995 20.7152 122.861 21.0042 122.791 21.3116Z" fill="#1B232E"/>
<path id="Vector_35" d="M130.211 21.4364C130.148 21.4918 130.08 21.5414 130.008 21.5845C129.805 21.7136 129.593 21.829 129.375 21.9299C128.567 22.3027 127.686 22.4892 126.797 22.4757C126.504 22.4734 126.212 22.4413 125.926 22.3799C125.603 22.3136 125.307 22.153 125.075 21.9183C124.947 21.79 124.853 21.6316 124.803 21.4576C124.752 21.2835 124.746 21.0996 124.785 20.9225C124.914 20.5644 125.179 20.2715 125.522 20.1068C126.832 19.3723 128.478 19.0732 130.167 18.9745C130.594 18.9513 131.012 18.9281 131.43 18.9223C131.851 18.9031 132.27 18.9816 132.655 19.1516C132.846 19.2354 133.016 19.3619 133.15 19.5215C133.285 19.6811 133.38 19.8694 133.431 20.0719C133.494 20.4684 133.399 20.8739 133.166 21.2012C132.95 21.4993 132.679 21.7535 132.368 21.9503C132.078 22.1477 131.787 22.3161 131.497 22.4757C130.96 22.7674 130.396 23.0075 129.813 23.1928C128.969 23.4605 128.086 23.586 127.2 23.5644C126.961 23.56 126.721 23.5426 126.483 23.5122C126.4 23.5069 126.317 23.4933 126.236 23.4715C126.32 23.4657 126.403 23.4657 126.486 23.4715C126.649 23.4715 126.89 23.4976 127.2 23.4976C128.077 23.4955 128.948 23.3554 129.781 23.0825C130.355 22.8934 130.911 22.6504 131.439 22.3567C131.729 22.197 132.02 22.0257 132.31 21.8312C132.606 21.643 132.863 21.3995 133.068 21.1142C133.276 20.8172 133.362 20.4508 133.306 20.0922C133.26 19.9113 133.172 19.7434 133.051 19.6015C132.93 19.4595 132.778 19.3473 132.606 19.2736C132.24 19.1162 131.843 19.0447 131.445 19.0645C131.035 19.0645 130.614 19.0936 130.191 19.1168C128.504 19.2155 126.881 19.5087 125.601 20.22C125.287 20.3636 125.043 20.6256 124.921 20.9487C124.888 21.1036 124.893 21.2646 124.938 21.4168C124.983 21.569 125.065 21.7075 125.177 21.8196C125.391 22.0388 125.664 22.1902 125.964 22.2551C126.244 22.3197 126.53 22.3537 126.817 22.3567C127.694 22.3789 128.566 22.2115 129.372 21.8661C129.59 21.771 129.803 21.6644 130.011 21.5467C130.075 21.5058 130.142 21.469 130.211 21.4364Z" fill="#1B232E"/>
<path id="Vector_36" d="M146.55 22.3073C146.489 22.313 146.428 22.313 146.367 22.3073C146.191 22.2969 146.016 22.2706 145.845 22.2289C145.215 22.0649 144.618 21.7949 144.079 21.4306C143.383 21.0009 142.628 20.368 141.676 19.8919C140.621 19.3986 139.435 19.2581 138.293 19.4913C137.152 19.7176 136.061 20.1495 135.074 20.7657C134.265 21.2706 133.485 21.8202 132.737 22.4118C132.089 22.9083 131.555 23.3002 131.175 23.5528C130.986 23.6805 130.835 23.7763 130.734 23.8431C130.682 23.8783 130.628 23.9085 130.571 23.9331C130.615 23.8896 130.664 23.8507 130.716 23.817L131.143 23.5092C131.512 23.2421 132.031 22.8386 132.67 22.3334C133.41 21.7272 134.185 21.1659 134.993 20.6525C135.991 20.0202 137.099 19.5783 138.259 19.349C138.863 19.2369 139.48 19.2154 140.091 19.2851C140.66 19.3516 141.214 19.5167 141.728 19.7729C142.703 20.2664 143.447 20.9109 144.129 21.3464C144.659 21.7077 145.243 21.983 145.859 22.1622C146.297 22.2899 146.553 22.2899 146.55 22.3073Z" fill="#1B232E"/>
<path id="Vector_37" d="M139.884 22.2842C139.823 22.288 139.762 22.288 139.701 22.2842C139.582 22.2842 139.411 22.2843 139.179 22.3017C138.947 22.3191 138.674 22.3365 138.354 22.3772C138.195 22.3975 138.023 22.4236 137.843 22.4555C137.658 22.4698 137.478 22.5264 137.318 22.621C137.282 22.6406 137.255 22.6717 137.239 22.7092C137.224 22.7467 137.222 22.7883 137.234 22.8271C137.257 22.8665 137.289 22.8999 137.327 22.9246C137.365 22.9493 137.409 22.9647 137.454 22.9694C137.661 23.01 137.899 23.0362 138.134 23.0623C138.607 23.1146 139.118 23.1494 139.652 23.1552C140.214 23.1655 140.776 23.1461 141.336 23.0971C141.623 23.0943 141.904 23.0226 142.158 22.8881C142.215 22.8546 142.264 22.8092 142.302 22.7552C142.34 22.7011 142.366 22.6395 142.378 22.5746C142.385 22.5082 142.379 22.441 142.358 22.3775C142.338 22.3139 142.304 22.2554 142.259 22.2059C142.051 21.9961 141.798 21.8363 141.519 21.7385C141.248 21.6201 140.969 21.5231 140.683 21.4481C140.144 21.3048 139.588 21.2345 139.031 21.2391C138.081 21.2499 137.148 21.4857 136.308 21.9272C135.74 22.223 135.221 22.6038 134.769 23.0565C134.45 23.3787 134.296 23.582 134.284 23.5733C134.314 23.5189 134.349 23.4674 134.389 23.4194C134.493 23.2783 134.605 23.1435 134.725 23.0158C135.278 22.4252 135.944 21.9513 136.683 21.6222C137.422 21.2931 138.219 21.1154 139.028 21.0998C139.599 21.0902 140.168 21.1586 140.72 21.303C141.013 21.378 141.299 21.475 141.577 21.5933C141.879 21.6998 142.152 21.8746 142.375 22.1043C142.434 22.1697 142.478 22.2472 142.505 22.3315C142.531 22.4157 142.538 22.5046 142.526 22.592C142.512 22.6786 142.479 22.761 142.429 22.8329C142.378 22.9048 142.313 22.9644 142.236 23.0071C141.962 23.1552 141.656 23.2349 141.345 23.2394C140.781 23.2871 140.215 23.3035 139.649 23.2887C139.106 23.2887 138.592 23.2394 138.116 23.1813C137.875 23.1494 137.652 23.1233 137.422 23.0768C137.36 23.0669 137.302 23.0422 137.251 23.0048C137.201 22.9674 137.16 22.9184 137.132 22.862C137.113 22.8004 137.115 22.7341 137.137 22.6736C137.16 22.6132 137.202 22.562 137.257 22.5281C137.434 22.4245 137.633 22.3648 137.838 22.3539C138.018 22.3249 138.192 22.3046 138.354 22.2872C138.677 22.2552 138.955 22.2407 139.185 22.2378C139.414 22.2349 139.591 22.2378 139.71 22.2378C139.77 22.245 139.829 22.2606 139.884 22.2842Z" fill="#1B232E"/>
</g>
</g>
<g id="Floor">
<path id="Vector_38" d="M157.09 61.9356C157.09 61.9762 131.752 62.0111 100.502 62.0111C69.2526 62.0111 43.9109 61.9617 43.9109 61.9356C43.9109 61.9095 69.2438 61.8601 100.502 61.8601C131.76 61.8601 157.09 61.8775 157.09 61.9356Z" fill="#465159"/>
</g>
<g id="Plants">
<path id="Vector_39" d="M46.9069 109.37C46.8808 109.37 46.7763 108.94 46.5643 108.252C46.2862 107.357 45.9427 106.484 45.5366 105.639C45.1289 104.795 44.6592 103.982 44.1315 103.207C43.725 102.611 43.4492 102.257 43.4696 102.243C43.5506 102.31 43.6237 102.386 43.6873 102.469C43.8208 102.623 44.0037 102.852 44.2186 103.146C44.7744 103.91 45.2602 104.724 45.6702 105.576C46.082 106.427 46.4144 107.314 46.663 108.226C46.7588 108.577 46.8256 108.862 46.8604 109.062C46.8875 109.163 46.9031 109.266 46.9069 109.37Z" fill="#465159"/>
<path id="Vector_40" d="M48.8172 110.621C48.7795 110.621 48.045 108.194 47.1828 105.175C46.3205 102.156 45.6528 99.6967 45.6964 99.6764C45.7399 99.6561 46.4686 102.103 47.3308 105.123C48.1931 108.142 48.8579 110.61 48.8172 110.621Z" fill="#465159"/>
<path id="Vector_41" d="M50.379 104.078C50.3617 104.409 50.3239 104.738 50.2658 105.065C50.1874 105.671 50.0974 106.516 50.048 107.445C49.9987 108.374 49.9958 109.222 50.0103 109.835C50.0283 110.165 50.0283 110.497 50.0103 110.827C49.9794 110.743 49.9628 110.653 49.9609 110.563C49.9377 110.392 49.9174 110.145 49.8971 109.837C49.8497 109.038 49.8497 108.236 49.8971 107.437C49.9391 106.637 50.0273 105.84 50.1612 105.05C50.2135 104.745 50.2629 104.501 50.3035 104.336C50.3177 104.247 50.3431 104.16 50.379 104.078Z" fill="#465159"/>
<path id="Vector_42" d="M133.218 54.2739C133.259 54.2739 133.784 55.9665 134.379 58.08C134.974 60.1935 135.448 61.9179 135.41 61.9295C135.372 61.9412 134.844 60.237 134.234 58.1235C133.624 56.01 133.177 54.2855 133.218 54.2739Z" fill="#465159"/>
<path id="Vector_43" d="M136.667 54.814C136.69 54.814 136.58 55.2088 136.455 55.8475C136.29 56.6763 136.193 57.5171 136.165 58.3616C136.141 59.2059 136.186 60.0506 136.301 60.8874C136.388 61.5319 136.475 61.9238 136.449 61.9296C136.408 61.8439 136.379 61.7531 136.362 61.6596C136.294 61.411 136.239 61.1591 136.196 60.9048C135.901 59.2185 135.953 57.4896 136.35 55.8243C136.407 55.5721 136.477 55.3231 136.559 55.0782C136.581 54.9849 136.617 54.8957 136.667 54.814Z" fill="#465159"/>
<path id="Vector_44" d="M138.812 56.1698C138.833 56.1843 138.632 56.4601 138.356 56.9594C137.999 57.5951 137.708 58.2653 137.485 58.9597C137.271 59.6564 137.129 60.3734 137.062 61.0993C137.009 61.6597 137.012 62.008 136.986 62.008C136.963 61.929 136.952 61.8466 136.954 61.7642C136.942 61.5408 136.942 61.3169 136.954 61.0935C137.03 59.6095 137.48 58.1686 138.261 56.9043C138.378 56.7138 138.506 56.5296 138.644 56.3527C138.745 56.2308 138.803 56.164 138.812 56.1698Z" fill="#465159"/>
<path id="Vector_45" d="M135.867 82.0396C135.713 81.459 136.102 80.8493 136.541 80.4196C136.979 79.99 137.499 79.6009 137.725 79.0319C138.094 78.1058 137.6 76.9097 138.227 76.1288C138.596 75.6759 139.261 75.5249 139.589 75.0401C139.739 74.7703 139.837 74.475 139.879 74.1691C140.229 72.6337 140.984 71.2201 142.065 70.0757C142.135 71.4452 141.834 72.8081 141.194 74.0211C140.897 74.4804 140.677 74.9855 140.544 75.5162C140.405 76.3871 140.895 77.3016 140.68 78.161C140.434 79.1481 139.325 79.8071 139.272 80.8232C139.229 81.6941 139.978 82.4344 139.923 83.2909C139.877 83.6558 139.745 84.0049 139.539 84.3099C138.875 85.4131 137.902 86.1737 136.424 86.1476L134.616 86.2114L135.867 82.0396Z" fill="#FFC44C"/>
<g id="Group_4" opacity="0.3">
<path id="Vector_46" d="M135.852 82.0396C135.698 81.459 136.087 80.8493 136.525 80.4196C136.964 79.99 137.483 79.6009 137.71 79.0319C138.078 78.1058 137.585 76.9097 138.212 76.1288C138.581 75.6759 139.245 75.5249 139.573 75.0401C139.724 74.7703 139.822 74.475 139.864 74.1691C140.213 72.6337 140.968 71.2201 142.05 70.0757C142.119 71.4452 141.818 72.8081 141.179 74.0211C140.881 74.4804 140.662 74.9855 140.529 75.5162C140.389 76.3871 140.88 77.3016 140.665 78.161C140.418 79.1481 139.309 79.8071 139.257 80.8232C139.213 81.6941 139.962 82.4344 139.907 83.2909C139.861 83.6558 139.73 84.0049 139.524 84.3099C138.859 85.4131 137.887 86.1737 136.409 86.1476L134.6 86.2114L135.852 82.0396Z" fill="#1B232E"/>
</g>
<path id="Vector_47" d="M134.249 86.2753C134.085 86.3038 133.917 86.3038 133.753 86.2753C133.555 86.2441 133.361 86.1945 133.172 86.1272C132.91 86.0343 132.665 85.9 132.446 85.7295C132.318 85.6217 132.219 85.4841 132.156 85.3289C132.102 85.1538 132.074 84.972 132.072 84.7889C132.067 84.5947 132.052 84.4009 132.028 84.2083C131.994 84.002 131.919 83.8047 131.808 83.6276C131.596 83.2531 131.241 82.8989 131.125 82.3909C131.038 81.8634 131.055 81.3239 131.175 80.8028C131.306 80.2425 131.292 79.6579 131.134 79.1045C130.94 78.5384 130.553 78.0274 130.344 77.3887C130.135 76.75 130.237 76.0504 130.196 75.3565C130.183 75.0097 130.104 74.6685 129.961 74.352C129.813 74.0298 129.61 73.7279 129.453 73.3911C129.131 72.7088 129.076 71.9395 128.986 71.1818C128.945 70.7986 128.901 70.4124 128.858 70.0205C128.831 69.6273 128.763 69.2381 128.655 68.8593C128.533 68.4774 128.389 68.1032 128.222 67.7386C128.137 67.5511 128.067 67.3569 128.013 67.158C127.982 66.9521 127.963 66.7447 127.955 66.5367C127.936 66.1191 127.951 65.7005 128.002 65.2855C128.051 64.8674 128.126 64.4523 128.173 64.0342V63.9616V63.8774L128.245 63.9152C128.629 64.1109 128.963 64.392 129.221 64.7368C129.471 65.0746 129.672 65.446 129.819 65.84C130.078 66.612 130.266 67.4059 130.382 68.2119C130.496 68.9794 130.748 69.72 131.125 70.3979C131.323 70.7202 131.564 71.0163 131.773 71.3298C131.998 71.6351 132.152 71.9874 132.223 72.3605C132.33 73.1269 131.909 73.7975 131.996 74.4769C132.038 74.8095 132.151 75.1293 132.327 75.4146C132.49 75.7049 132.684 75.972 132.867 76.242C133.054 76.5052 133.216 76.7851 133.352 77.0781C133.48 77.3644 133.555 77.6711 133.576 77.9839C133.619 78.5935 133.532 79.1742 133.576 79.7258C133.623 80.2458 133.774 80.7511 134.02 81.2122C134.24 81.6593 134.484 82.0599 134.687 82.4518C134.789 82.6464 134.885 82.838 134.96 83.0325C135.034 83.22 135.087 83.4146 135.12 83.6131C135.175 83.9551 135.18 84.3033 135.135 84.6466C135.088 85.1259 134.908 85.5824 134.615 85.9647C134.571 86.0217 134.522 86.0751 134.47 86.1243C134.433 86.1611 134.394 86.1941 134.351 86.223C134.284 86.2724 134.246 86.2956 134.246 86.2956C134.377 86.1956 134.495 86.0795 134.597 85.9501C134.877 85.5664 135.047 85.1137 135.088 84.6408C135.129 84.3028 135.121 83.9606 135.065 83.6247C135.032 83.4328 134.978 83.245 134.905 83.0644C134.824 82.8661 134.732 82.6722 134.629 82.4838C134.423 82.0977 134.179 81.697 133.956 81.2499C133.703 80.7804 133.545 80.2653 133.491 79.7345C133.445 79.1771 133.529 78.5964 133.491 77.9926C133.471 77.6916 133.398 77.3966 133.274 77.1216C133.14 76.8338 132.978 76.5596 132.792 76.303C132.609 76.0359 132.414 75.7659 132.246 75.4697C132.063 75.1727 131.945 74.8402 131.9 74.4943C131.813 73.7714 132.231 73.095 132.124 72.3837C132.054 72.0263 131.905 71.6891 131.689 71.3966C131.482 71.0889 131.241 70.7928 131.038 70.4618C130.651 69.7733 130.393 69.0195 130.278 68.238C130.161 67.44 129.973 66.6541 129.717 65.8893C129.575 65.5056 129.38 65.144 129.137 64.8152C128.891 64.4839 128.572 64.2137 128.205 64.0255L128.286 63.979V64.0516C128.24 64.4755 128.164 64.8906 128.115 65.3029C128.065 65.7121 128.049 66.1249 128.068 66.5367C128.076 66.7389 128.094 66.9404 128.123 67.1406C128.175 67.3339 128.243 67.5223 128.327 67.7038C128.493 68.0729 128.638 68.4509 128.762 68.836C128.871 69.2208 128.939 69.6158 128.965 70.0147C129.009 70.4037 129.052 70.7899 129.093 71.176C129.18 71.9366 129.238 72.6972 129.546 73.3562C129.7 73.6814 129.903 73.9862 130.054 74.3172C130.201 74.6458 130.283 74.9997 130.295 75.3594C130.336 76.0562 130.243 76.7384 130.431 77.3568C130.62 77.9752 131.012 78.4861 131.215 79.0726C131.377 79.6404 131.39 80.2402 131.253 80.8145C131.134 81.3246 131.114 81.853 131.195 82.3706C131.3 82.8554 131.642 83.2067 131.86 83.5928C131.973 83.778 132.049 83.9829 132.086 84.1966C132.109 84.3894 132.122 84.5832 132.124 84.7773C132.124 84.9561 132.149 85.134 132.199 85.3056C132.264 85.454 132.364 85.5844 132.49 85.686C132.703 85.856 132.942 85.9903 133.198 86.0837C133.386 86.1544 133.581 86.2079 133.779 86.2434C133.901 86.2646 134.024 86.2763 134.147 86.2782L134.249 86.2753Z" fill="#465159"/>
<path id="Vector_48" d="M128.533 64.9575C128.541 64.9748 128.547 64.9935 128.55 65.0127C128.55 65.0562 128.573 65.1114 128.591 65.1753C128.626 65.3175 128.669 65.5352 128.736 65.8023C128.803 66.0694 128.971 66.383 129.11 66.7488C129.277 67.1685 129.422 67.5968 129.543 68.032C129.679 68.5139 129.801 69.051 129.929 69.6229C130.04 70.2362 130.235 70.8313 130.51 71.3909C130.658 71.6812 130.823 71.9716 130.957 72.3083C131.087 72.6425 131.175 72.9917 131.218 73.3476C131.31 74.0836 131.44 74.8142 131.607 75.5366C131.97 77.0172 132.316 78.4398 132.632 79.7172L133.503 83.1255C133.741 84.0922 133.935 84.8674 134.084 85.4277C134.147 85.6948 134.197 85.9038 134.232 86.0548L134.266 86.2202C134.266 86.2551 134.266 86.2754 134.266 86.2754C134.259 86.2584 134.252 86.241 134.246 86.2232L134.2 86.0606C134.159 85.9096 134.104 85.7035 134.031 85.4393L133.427 83.1458C133.175 82.1761 132.876 81.0236 132.556 79.7433C132.237 78.463 131.889 77.0434 131.523 75.5598C131.354 74.8349 131.224 74.1012 131.134 73.3622C131.094 73.0152 131.01 72.6748 130.884 72.349C130.757 72.0325 130.594 71.7364 130.443 71.4403C130.167 70.8722 129.971 70.2683 129.862 69.6461C129.738 69.0655 129.621 68.5342 129.488 68.0523C129.354 67.5704 129.218 67.1436 129.079 66.772C128.939 66.4004 128.788 66.0926 128.719 65.8139C128.649 65.5352 128.623 65.3262 128.594 65.1811C128.594 65.1143 128.573 65.0591 128.565 65.0156C128.55 64.9984 128.54 64.9787 128.533 64.9575Z" fill="#465159"/>
<path id="Vector_49" d="M133.93 86.2812C132.748 85.5786 132.409 83.4477 132.902 82.1645C133.396 80.8813 134.258 79.7055 134.391 78.3382C134.493 77.2872 134.15 76.2072 134.391 75.1795C134.722 73.7918 136.078 72.7147 136.061 71.2893C136.061 70.488 135.596 69.7361 135.634 68.9377C135.678 67.9565 136.429 67.1784 136.897 66.3249C137.611 65.004 137.658 63.4392 137.901 61.9702C138.145 60.5012 138.711 58.8986 140.024 58.1699C140.218 59.427 140.549 60.2892 140.447 61.9963C140.41 62.6089 139.698 63.7817 139.6 65.123C139.542 65.9243 139.504 66.7284 139.455 67.5326C139.446 68.3158 139.318 69.0932 139.074 69.8377C138.859 70.398 138.517 70.909 138.357 71.4867C138.067 72.5754 138.45 73.7512 138.209 74.8544C138.003 75.7892 137.358 76.5963 137.225 77.5398C137.039 78.8694 137.901 80.2513 137.46 81.52C137.242 82.15 136.723 82.6551 136.589 83.3055C136.473 83.8106 136.589 84.3448 136.493 84.8528C136.328 85.6686 134.772 86.3044 133.939 86.2522" fill="#FFC44C"/>
<path id="Vector_50" d="M139.701 59.395C139.704 59.4191 139.704 59.4435 139.701 59.4676C139.701 59.5199 139.687 59.5866 139.675 59.6737C139.649 59.8566 139.617 60.1237 139.556 60.4663C139.495 60.8089 139.312 61.2066 139.17 61.6769C139.028 62.1472 138.88 62.6872 138.735 63.294C138.589 63.9007 138.488 64.5743 138.369 65.2942C138.274 66.0725 138.07 66.8337 137.765 67.5558C137.596 67.9332 137.411 68.3135 137.271 68.7171C137.136 69.131 137.052 69.56 137.022 69.9945C136.956 70.9183 136.84 71.838 136.676 72.7495C136.313 74.6134 135.971 76.3901 135.654 78.0072C135.338 79.6242 135.027 81.07 134.783 82.2922C134.539 83.5145 134.325 84.487 134.182 85.178C134.11 85.5118 134.052 85.7731 134.011 85.9589C133.994 86.0431 133.976 86.1099 133.965 86.1621C133.961 86.1861 133.954 86.2095 133.944 86.2318C133.942 86.2086 133.942 86.1853 133.944 86.1621C133.944 86.107 133.965 86.0402 133.979 85.956C134.017 85.7673 134.066 85.5031 134.127 85.1663C134.264 84.4754 134.458 83.4912 134.708 82.2632C134.957 81.0352 135.239 79.5865 135.561 77.9752C135.884 76.364 136.215 74.5814 136.575 72.7176C136.739 71.8099 136.854 70.8941 136.92 69.9741C136.952 69.5306 137.039 69.0928 137.178 68.6706C137.324 68.2584 137.512 67.878 137.678 67.5093C137.983 66.7972 138.188 66.0457 138.285 65.2768C138.409 64.5539 138.525 63.8833 138.668 63.2736C138.791 62.7265 138.941 62.1858 139.118 61.6537C139.269 61.1805 139.454 60.7827 139.524 60.4547C139.594 60.1266 139.629 59.8479 139.664 59.6679L139.701 59.4618V59.395Z" fill="#465159"/>
<g id="Group 2609787">
<path id="Vector_51" d="M143.382 113.498C143.664 113.633 143.916 113.823 144.124 114.058C144.331 114.292 144.488 114.566 144.587 114.863C144.78 115.459 144.835 116.092 144.746 116.712C144.61 117.911 143.931 119.122 143.196 120.083C142.186 119.212 141.954 117.661 141.884 116.875C141.774 115.629 142.334 113.313 143.382 113.498Z" fill="#FFC44C"/>
<path id="Vector_52" d="M144.369 122.063C144.301 121.719 144.324 121.364 144.437 121.033C144.549 120.702 144.747 120.406 145.01 120.175C145.278 119.951 145.587 119.781 145.921 119.677C146.254 119.573 146.605 119.536 146.953 119.569C147.114 119.567 147.274 119.601 147.421 119.667C147.569 119.733 147.7 119.83 147.806 119.952C147.885 120.084 147.926 120.234 147.926 120.387C147.926 120.541 147.885 120.691 147.806 120.823C147.653 121.084 147.434 121.301 147.17 121.45C146.299 121.999 145.347 122.37 144.357 122.074" fill="#FFC44C"/>
<path id="Vector_53" d="M143.074 125.741C143.079 125.658 143.091 125.576 143.109 125.494L143.231 124.827C143.345 124.085 143.577 123.367 143.919 122.699C144.275 122.032 144.802 121.472 145.446 121.076C145.643 120.96 145.852 120.867 146.07 120.8C146.129 120.781 146.189 120.767 146.25 120.756C146.271 120.752 146.293 120.752 146.314 120.756C146.022 120.852 145.742 120.98 145.478 121.137C144.856 121.541 144.347 122.097 143.997 122.751C143.66 123.412 143.422 124.119 143.292 124.85C143.231 125.14 143.181 125.355 143.144 125.509C143.128 125.588 143.105 125.666 143.074 125.741Z" fill="#465159"/>
<path id="Vector_54" d="M143.112 115.301C143.117 115.337 143.117 115.373 143.112 115.409C143.112 115.487 143.112 115.592 143.132 115.716C143.132 115.986 143.161 116.375 143.176 116.854C143.207 117.815 143.231 119.145 143.225 120.614C143.219 122.083 143.184 123.41 143.144 124.371C143.123 124.85 143.106 125.242 143.088 125.509C143.088 125.634 143.074 125.738 143.068 125.817C143.067 125.853 143.063 125.889 143.054 125.924C143.05 125.888 143.05 125.852 143.054 125.817C143.054 125.735 143.054 125.634 143.054 125.506C143.054 125.216 143.071 124.841 143.083 124.368C143.106 123.407 143.132 122.08 143.138 120.611C143.144 119.142 143.138 117.818 143.115 116.857C143.115 116.384 143.1 115.986 143.097 115.719V115.409C143.098 115.372 143.102 115.336 143.112 115.301Z" fill="#465159"/>
<path id="Vector_55" d="M142.621 122.791C142.499 122.065 142.205 121.378 141.765 120.788C141.325 120.197 140.751 119.72 140.09 119.395C139.75 119.232 139.309 119.125 139.033 119.377C138.757 119.63 138.818 120.08 138.952 120.428C139.247 121.155 139.751 121.778 140.4 122.218C141.049 122.658 141.814 122.896 142.598 122.902" fill="#FFC44C"/>
<path id="Vector_56" d="M140.252 120.53C140.326 120.556 140.398 120.588 140.467 120.626C140.55 120.664 140.63 120.706 140.708 120.753C140.798 120.811 140.908 120.867 141.016 120.948C141.138 121.03 141.257 121.118 141.37 121.212C141.5 121.32 141.625 121.434 141.744 121.555C142.016 121.832 142.255 122.139 142.459 122.469C142.655 122.804 142.813 123.161 142.929 123.532C142.975 123.706 143.022 123.868 143.048 124.025C143.077 124.17 143.097 124.316 143.109 124.464C143.116 124.584 143.116 124.706 143.109 124.826C143.115 124.918 143.115 125.01 143.109 125.102C143.107 125.18 143.099 125.258 143.083 125.335C143.062 125.335 143.083 125.001 143.036 124.464C143.021 124.319 142.998 124.176 142.967 124.034C142.934 123.871 142.892 123.71 142.842 123.552C142.613 122.821 142.215 122.153 141.68 121.604C141.566 121.483 141.445 121.369 141.318 121.261C141.201 121.157 141.082 121.073 140.975 120.991C140.548 120.687 140.243 120.547 140.252 120.53Z" fill="#465159"/>
</g>
<path id="Vector_57" d="M134.533 104.542C134.515 104.591 134.49 104.638 134.46 104.682C134.402 104.786 134.327 104.914 134.234 105.068C134.141 105.222 134.01 105.436 133.88 105.68C133.749 105.924 133.589 106.191 133.43 106.502C133.105 107.111 132.75 107.86 132.393 108.702C132.014 109.622 131.682 110.56 131.398 111.513C131.107 112.529 130.887 113.513 130.721 114.416C130.556 115.319 130.463 116.14 130.408 116.831C130.373 117.177 130.361 117.49 130.344 117.763C130.326 118.036 130.318 118.277 130.312 118.472C130.306 118.666 130.312 118.8 130.312 118.919C130.313 118.97 130.308 119.022 130.294 119.072C130.283 119.022 130.278 118.97 130.28 118.919C130.28 118.8 130.28 118.652 130.28 118.469C130.28 118.286 130.28 118.036 130.28 117.76C130.28 117.484 130.28 117.18 130.323 116.823C130.379 116.008 130.476 115.197 130.614 114.393C130.783 113.408 131.006 112.433 131.281 111.472C131.567 110.514 131.905 109.573 132.295 108.653C132.66 107.805 133.026 107.062 133.366 106.452C133.528 106.145 133.694 105.872 133.836 105.64C133.978 105.407 134.103 105.201 134.214 105.039C134.324 104.876 134.396 104.769 134.466 104.67C134.536 104.571 134.533 104.539 134.533 104.542Z" fill="#465159"/>
<path id="Vector_58" d="M129.949 108.729C129.957 108.858 129.951 108.989 129.931 109.118C129.905 109.408 129.87 109.756 129.833 110.18C129.746 111.074 129.635 112.314 129.542 113.681C129.449 115.049 129.394 116.294 129.357 117.191L129.307 118.257C129.31 118.388 129.298 118.52 129.272 118.649C129.251 118.519 129.243 118.388 129.249 118.257C129.249 118.004 129.249 117.641 129.249 117.188C129.249 116.288 129.299 115.043 129.391 113.673C129.484 112.302 129.612 111.06 129.725 110.168C129.783 109.721 129.833 109.361 129.873 109.112C129.887 108.982 129.912 108.854 129.949 108.729Z" fill="#465159"/>
<path id="Vector_59" d="M125.498 112.526C125.575 112.578 125.646 112.639 125.707 112.709C125.888 112.887 126.059 113.075 126.218 113.272C126.747 113.923 127.186 114.643 127.522 115.412C127.857 116.18 128.086 116.991 128.201 117.821C128.238 118.072 128.26 118.325 128.268 118.579C128.28 118.675 128.28 118.773 128.268 118.869C128.242 118.869 128.216 118.477 128.105 117.85C127.816 116.216 127.144 114.674 126.143 113.35C125.751 112.831 125.478 112.543 125.498 112.526Z" fill="#465159"/>
<path id="Vector_60" d="M143.28 64.7051C143.33 64.7449 143.376 64.7897 143.417 64.8386L143.788 65.2393L144.053 65.5296C144.148 65.6399 144.244 65.7647 144.343 65.8954C144.552 66.1625 144.802 66.4557 145.04 66.8099L145.423 67.3557C145.553 67.5473 145.672 67.7563 145.806 67.9682C146.082 68.3892 146.326 68.8653 146.593 69.3588C147.713 71.5371 148.441 73.8957 148.744 76.3264C148.799 76.8867 148.866 77.418 148.878 77.9173C148.878 78.1699 148.904 78.4109 148.904 78.6431V79.3109C148.904 79.7347 148.866 80.1179 148.843 80.4547C148.843 80.6231 148.819 80.7828 148.805 80.925C148.79 81.0673 148.767 81.1979 148.75 81.3169C148.718 81.5405 148.692 81.7205 148.669 81.8569C148.664 81.9212 148.652 81.9847 148.631 82.0456C148.627 81.9818 148.627 81.9178 148.631 81.854C148.645 81.7147 148.663 81.5347 148.683 81.3111C148.683 81.1921 148.709 81.0615 148.724 80.9192C148.738 80.777 148.741 80.6289 148.75 80.4489C148.764 80.115 148.799 79.7318 148.788 79.308V78.6431C148.788 78.4138 148.761 78.1728 148.75 77.9261C148.735 77.4267 148.666 76.9012 148.605 76.3438C148.287 73.9333 147.566 71.5934 146.471 69.4227C146.207 68.9292 145.969 68.4531 145.702 68.035C145.571 67.8231 145.452 67.6111 145.324 67.4195C145.196 67.2279 145.072 67.045 144.952 66.8708C144.723 66.5137 144.479 66.2176 144.276 65.9476C144.174 65.8141 144.082 65.6863 143.986 65.576L143.73 65.2857L143.382 64.8677C143.342 64.8176 143.308 64.763 143.28 64.7051Z" fill="#465159"/>
<path id="Vector_61" d="M151.952 70.4358C151.925 70.5827 151.888 70.7273 151.839 70.8684C151.754 71.1587 151.638 71.5419 151.502 72.0296C150.791 74.612 150.378 77.2673 150.271 79.9436C150.251 80.4575 150.239 80.8726 150.233 81.1601C150.239 81.3095 150.231 81.4591 150.21 81.6071C150.184 81.4606 150.172 81.3118 150.175 81.163C150.175 80.8726 150.155 80.4575 150.175 79.9407C150.222 77.2499 150.638 74.5781 151.412 72.0006C151.563 71.5071 151.702 71.1122 151.795 70.8393C151.835 70.7004 151.887 70.5653 151.952 70.4358Z" fill="#465159"/>
<path id="Vector_62" d="M152.579 76.1201C152.214 76.7886 151.895 77.4811 151.624 78.193C151.404 78.9209 151.233 79.6629 151.113 80.4139C151.081 80.1896 151.081 79.9618 151.113 79.7375C151.174 79.1948 151.294 78.6604 151.47 78.1436C151.646 77.6258 151.878 77.1292 152.164 76.663C152.274 76.4623 152.414 76.2793 152.579 76.1201Z" fill="#465159"/>
</g>
<g id="Character">
<path id="Vector_63" d="M63.1807 130.304L60.1357 159.658L57.9499 203.862H46.2854L45.9685 109.783L79.3671 112.162L86.2895 161.522L80.2962 204.727H67.4985L70.4898 163.648L63.1807 130.304Z" fill="#465159"/>
<path id="Vector_64" d="M63.2181 129.718C63.2655 128.465 63.244 127.21 63.1537 125.959C63.1503 124.703 63.0786 123.448 62.9389 122.2C62.7922 123.447 62.767 124.706 62.8637 125.959C62.8607 127.221 62.9794 128.479 63.2181 129.718Z" fill="#55646F"/>
<path id="Vector_65" d="M59.357 118.763C59.2945 118.756 59.2315 118.756 59.169 118.763L58.5944 118.73L56.3818 118.623L48.4765 118.29H48.3369V118.424C48.3369 120.895 48.3369 123.687 48.3369 126.636V126.893L48.4282 126.931L53.5731 128.988H53.6214H53.6697L58.2185 127.409L58.2883 127.382V127.307C58.6212 124.745 58.9005 122.613 59.0992 121.083C59.1851 120.368 59.255 119.794 59.3087 119.369C59.3379 119.176 59.3558 118.98 59.3624 118.784C59.3462 118.838 59.3354 118.894 59.3301 118.951C59.3301 119.079 59.2818 119.23 59.2496 119.412C59.1798 119.842 59.0885 120.422 58.9757 121.147C58.7501 122.651 58.4387 124.756 58.052 127.275L58.1325 127.178L53.5731 128.725H53.6697L48.5302 126.652L48.6215 126.786V126.625C48.6215 123.677 48.6215 120.884 48.6215 118.414L48.4873 118.548L56.3066 118.741L58.5568 118.779H59.3785L59.357 118.763Z" fill="#55646F"/>
<path id="Vector_66" d="M76.1984 118.902H76.0266H75.4895L73.4864 118.843L66.2739 118.671H66.1396V118.805C66.2202 121.244 66.3061 124.047 66.4028 127.038V127.065L66.4619 127.108L67.2997 127.645L71.5262 130.4L71.6014 130.448L71.6765 130.405L76.4401 127.5L76.4992 127.463V127.393C76.4079 124.836 76.3327 122.704 76.279 121.174C76.2521 120.465 76.2253 119.89 76.2092 119.466C76.1931 119.042 76.1716 118.875 76.1662 118.881C76.159 118.938 76.159 118.995 76.1662 119.052V119.547C76.1662 119.982 76.1662 120.562 76.1662 121.287C76.1662 122.796 76.2199 124.906 76.2575 127.43L76.3166 127.328L71.5315 130.196H71.6819L67.4661 127.42L66.6337 126.883L66.6982 127.001C66.5908 124.009 66.4887 121.201 66.3974 118.762L66.2685 118.897L73.4058 118.934H75.9782L76.1984 118.902Z" fill="#55646F"/>
<path id="Vector_67" d="M62.7511 58.9522L50.1682 58.7965L51.5753 48.4531C51.5753 48.4531 50.716 48.2758 50.6569 43.7754C50.5978 39.275 50.383 31.6276 50.383 31.6276C53.0375 30.5265 55.9318 30.1314 58.7842 30.4805C61.6367 30.8297 64.3502 31.9112 66.6607 33.62L67.3535 34.157L62.7511 58.9522Z" fill="#D4AB93"/>
<path id="Vector_68" d="M65.8928 39.6511C65.9734 39.6189 69.115 38.7382 68.9915 41.7993C68.868 44.8604 65.7102 44.1408 65.7102 44.0495C65.7102 43.9582 65.8928 39.6511 65.8928 39.6511Z" fill="#D4AB93"/>
<path id="Vector_69" d="M50.9254 38.9905C50.8448 38.9583 48.0093 38.2225 48.1059 41.2944C48.2026 44.3663 51.3873 43.6413 51.3926 43.55C51.398 43.4587 50.9254 38.9905 50.9254 38.9905Z" fill="#D4AB93"/>
<path id="Vector_70" d="M66.9292 39.3074C66.4566 41.8852 66.5479 43.2385 66.1075 44.9624C65.4094 47.6852 64.0077 49.7958 61.4675 51.1384C58.9273 52.481 55.4849 52.4756 53.3045 50.6014C51.7847 49.3125 50.7106 47.8625 50.485 45.9237C50.2595 43.985 50.0393 40.5533 50.0232 38.6146C50.0232 35.1024 49.7546 31.7459 49.7546 31.7459L60.1464 29.9307L66.0538 33.3248L66.9292 39.3074Z" fill="#465159"/>
<path id="Vector_71" d="M56.1882 52.6905C56.7703 52.9042 57.3989 52.958 58.0088 52.8463C58.6269 52.8291 59.2286 52.6434 59.7488 52.3092C59.7488 52.234 58.954 52.465 57.9766 52.567C56.9992 52.669 56.2151 52.61 56.1882 52.6905Z" fill="#465159"/>
<path id="Vector_72" d="M66.4244 43.6896C66.7251 41.0474 66.9238 38.0292 67.3534 35.2419C67.5145 34.1679 67.8905 32.691 67.8046 31.6384C67.7731 30.5731 67.5398 29.5234 67.1171 28.545C66.8016 27.9402 66.3538 27.4142 65.8072 27.006C65.2605 26.5979 64.6289 26.3181 63.9593 26.1874C63.283 26.0621 62.5875 26.0861 61.9215 26.2577C61.2554 26.4294 60.6349 26.7444 60.1034 27.181C59.7029 26.635 59.1536 26.2159 58.5212 25.974C57.8888 25.7321 57.2 25.6775 56.5374 25.8169C55.8843 25.9668 55.2903 26.3071 54.8305 26.7946C54.3707 27.2821 54.0658 27.895 53.9543 28.5558C53.5686 28.2224 53.0899 28.0153 52.5829 27.9625C52.0758 27.9097 51.5648 28.0137 51.1187 28.2604C50.6919 28.5174 50.3603 28.9065 50.1743 29.3687C49.9883 29.8308 49.9578 30.3411 50.0876 30.8221C49.7186 30.8829 49.3697 31.0318 49.0706 31.2562C48.7714 31.4806 48.5307 31.7738 48.369 32.111C48.2194 32.4474 48.1567 32.8159 48.1868 33.1829C48.2168 33.5498 48.3386 33.9033 48.5409 34.2108C49.0242 34.9251 49.8942 35.3171 50.4205 35.9992C50.721 36.3932 50.8969 36.8681 50.9256 37.3628C50.9543 37.8575 50.8345 38.3495 50.5816 38.7757" fill="#465159"/>
<path id="Vector_73" d="M51.9888 34.1571C52.0054 34.2599 52.0458 34.3574 52.1069 34.4417C52.2553 34.7043 52.4609 34.93 52.7084 35.1023C53.1026 35.3835 53.5777 35.5286 54.0617 35.5158C54.3755 35.506 54.6843 35.434 54.97 35.304C55.2558 35.174 55.5129 34.9886 55.7266 34.7586L55.5064 34.6995C55.5862 35.0543 55.7562 35.3825 55.9998 35.6525C56.2435 35.9225 56.5526 36.1251 56.8973 36.2408C57.2819 36.3844 57.6953 36.4336 58.1028 36.384C58.5103 36.3345 58.8999 36.1878 59.2388 35.9562C59.8459 35.5545 60.3088 34.9693 60.5599 34.286L60.3075 34.3182C60.5744 34.6954 60.9265 35.0043 61.3352 35.2199C61.744 35.4355 62.1978 35.5516 62.6598 35.5588C63.0252 35.5669 63.3887 35.5023 63.7289 35.3686C64.0691 35.2349 64.3793 35.0348 64.6415 34.7801C64.9801 34.4586 65.2266 34.0526 65.3557 33.6039C65.4128 33.4477 65.4348 33.2809 65.4202 33.1152C65.4202 33.1152 65.3718 33.2871 65.2644 33.5771C65.1029 33.9885 64.8472 34.3563 64.5179 34.6512C64.012 35.1052 63.3499 35.3457 62.6705 35.3225C62.2472 35.308 61.833 35.1957 61.4603 34.9945C61.0877 34.7933 60.7666 34.5085 60.5224 34.1625L60.372 33.9315L60.2699 34.1893C60.0335 34.8128 59.6094 35.3476 59.0562 35.7199C58.756 35.9265 58.4106 36.0582 58.049 36.104C57.6874 36.1498 57.3202 36.1083 56.9779 35.983C56.6751 35.8851 56.4021 35.712 56.1842 35.4801C55.9664 35.2482 55.8108 34.9648 55.7319 34.6565L55.689 34.3988L55.5118 34.5975C55.1732 34.9733 54.7129 35.2177 54.2118 35.2874C53.7108 35.3572 53.2012 35.2479 52.7729 34.9788C52.4603 34.7587 52.194 34.4796 51.9888 34.1571Z" fill="#55646F"/>
<path id="Vector_74" d="M52.0103 32.9273C52.0701 32.5246 52.2206 32.1408 52.4506 31.8049C52.7153 31.4509 53.0952 31.2002 53.5247 31.096C53.7947 31.0346 54.0743 31.0287 54.3466 31.0785C54.6189 31.1284 54.8783 31.233 55.109 31.386L55.3614 31.5632L55.3345 31.2625C55.3098 30.9629 55.3463 30.6613 55.4419 30.3763C55.5462 30.0629 55.7134 29.7741 55.9332 29.5276C56.1529 29.281 56.4207 29.0819 56.7201 28.9424C57.2277 28.722 57.7933 28.673 58.3312 28.8028C58.8298 28.9444 59.2904 29.1958 59.6792 29.5385C59.6792 29.5385 59.6201 29.3935 59.4214 29.1948C59.126 28.9231 58.771 28.7245 58.3849 28.6148C57.7354 28.4153 57.0335 28.4792 56.4306 28.7927C55.8278 29.1062 55.3724 29.6441 55.1627 30.2904C55.0566 30.612 55.0182 30.9521 55.0499 31.2893L55.2755 31.1604C55.0105 30.9868 54.7122 30.8703 54.3996 30.8185C54.087 30.7667 53.7671 30.7808 53.4603 30.8597C52.9755 30.9846 52.5545 31.285 52.2788 31.7028C52.0989 31.9666 51.9881 32.2713 51.9565 32.5889C51.9619 32.8091 51.9941 32.9273 52.0103 32.9273Z" fill="#55646F"/>
<path id="Vector_75" d="M58.6372 33.0133C58.6748 33.0133 58.6372 32.8415 58.6372 32.5945C58.6687 32.2676 58.7813 31.9538 58.9648 31.6815C59.1743 31.3646 59.4213 31.0424 59.5663 30.8652C59.7113 30.688 59.8724 30.8222 59.8993 30.8061C59.9261 30.79 59.8993 30.7363 59.8295 30.6826C59.7683 30.6492 59.699 30.634 59.6295 30.6388C59.5601 30.6436 59.4934 30.6681 59.4374 30.7094C59.3045 30.8136 59.1838 30.9326 59.0776 31.0639C58.9443 31.2121 58.8222 31.3701 58.7124 31.5365C58.5004 31.8526 58.402 32.2313 58.4331 32.6106C58.4761 32.8898 58.605 33.0295 58.6372 33.0133Z" fill="#55646F"/>
<path id="Vector_76" d="M64.781 29.1464C64.8132 29.1464 64.781 28.9048 64.5877 28.6094C64.4687 28.4128 64.3049 28.2472 64.1097 28.1261C63.8581 27.9699 63.5597 27.9072 63.2665 27.9488C62.7648 28.0349 62.314 28.3072 62.0045 28.7114C61.7736 28.9961 61.6662 29.1894 61.693 29.2109C61.7199 29.2324 61.8971 29.082 62.1549 28.8457C62.4671 28.5278 62.8674 28.3108 63.3041 28.2227C63.5169 28.2017 63.7315 28.2367 63.9265 28.3243C64.1215 28.4119 64.2902 28.5491 64.4158 28.7222C64.6575 28.9638 64.781 29.1625 64.781 29.1464Z" fill="#55646F"/>
<path id="Vector_77" d="M63.1698 42.2128C64.1246 41.0351 64.6494 39.567 64.6574 38.0508C64.5715 38.0508 64.405 39.0175 63.9968 40.1613C63.5887 41.3052 63.1107 42.1484 63.1698 42.2128Z" fill="#55646F"/>
<path id="Vector_78" d="M61.7896 42.9325C62.1442 42.5265 62.4062 42.0482 62.5575 41.5308C62.7965 41.0513 62.9267 40.5251 62.9388 39.9895C62.6572 40.4391 62.4386 40.9252 62.289 41.4341C62.0502 41.9065 61.882 42.4113 61.7896 42.9325Z" fill="#55646F"/>
<path id="Vector_79" d="M53.0305 43.1418C52.8832 44.0528 53.0084 44.987 53.3903 45.8271C53.6956 46.7201 54.2557 47.5042 55.0014 48.0826C54.5012 47.3356 54.063 46.5489 53.691 45.7304C53.4013 44.8868 53.1804 44.0211 53.0305 43.1418Z" fill="#55646F"/>
<path id="Vector_80" d="M51.6343 40.897C51.3007 41.6634 51.229 42.5184 51.4302 43.3298C51.5386 44.1643 51.9156 44.9409 52.5043 45.5424C52.1767 44.8128 51.9125 44.0564 51.7148 43.2814C51.6162 42.4907 51.5893 41.6926 51.6343 40.897Z" fill="#55646F"/>
<path id="Vector_81" d="M34.8088 83.9569V96.8459C34.8088 96.8459 44.4755 118.209 44.4755 117.882C44.4755 117.554 47.9287 104.397 47.9287 104.397L44.0405 94.1338L43.6753 87.4316L35.6949 71.4707C35.6949 71.4707 33.7132 82.2115 34.0354 82.856C34.2338 83.2613 34.4948 83.6328 34.8088 83.9569Z" fill="#FFAC34"/>
<path id="Vector_82" d="M46.8492 58.3615C46.8492 58.3615 38.0632 62.921 36.9784 64.328C35.8935 65.7351 35.6787 71.4868 35.6787 71.4868L46.8492 93.8277L47.3862 102.829C47.3862 102.829 44.0243 109.837 44.0243 114.735V115.272L43.4873 121.995L56.9133 123.188C56.9133 123.188 57.6759 119.498 57.6759 119.826C57.6759 120.153 58.6533 123.188 58.6533 123.188H80.8922L80.0705 108.382L76.2844 85.525C76.2844 85.525 77.8955 72.4159 77.9761 71.9379C78.1157 71.0894 92.1969 64.8436 92.1969 64.8436L98.8294 61.2615C99.6757 60.801 100.383 60.1212 100.876 59.2935C101.369 58.4658 101.63 57.5206 101.633 56.5571C101.63 55.5612 101.35 54.5859 100.824 53.7399C100.299 52.894 99.5488 52.2108 98.6575 51.7666L79.9416 42.5027L75.5862 49.8279L81.2896 53.4905L85.3765 56.3208L74.0396 57.3948C74.0396 57.3948 72.0257 54.7633 71.161 54.7633C70.2964 54.7633 63.3524 56.3745 63.3524 56.3745L63.4598 54.6398C63.4598 54.6398 61.6178 52.5776 59.5556 52.685C57.4933 52.7924 48.8147 55.2896 48.8147 55.2896L46.8492 58.3615Z" fill="#FFAC34"/>
<path id="Vector_83" d="M78.379 45.1289L73.4973 42.288L66.07 38.2602C66.07 38.2602 63.6211 36.402 62.6544 36.4557C62.2438 36.5305 61.8536 36.6911 61.5093 36.9271C61.165 37.1631 60.8745 37.4691 60.6566 37.8252C60.6137 38.0454 61.0165 38.4535 61.6394 38.2817C61.8435 38.228 62.4128 37.8144 62.7135 37.8789C63.2894 38.0152 63.7878 38.3744 64.0991 38.8778C64.1375 38.9274 64.1612 38.9868 64.1674 39.0493C64.1735 39.1118 64.1619 39.1747 64.1338 39.2308C64.1058 39.287 64.0624 39.334 64.0087 39.3666C63.9551 39.3991 63.8933 39.4159 63.8305 39.4148C63.8305 39.4148 59.6255 38.3407 58.0574 39.2C57.8724 39.2899 57.727 39.4446 57.6488 39.6347C57.5706 39.8249 57.565 40.0371 57.6331 40.2311C57.7459 40.505 58.0466 40.7682 58.7824 40.6071C60.2592 40.3224 62.6974 41.4556 62.6974 41.4556C62.6974 41.4556 57.2411 41.2784 56.3066 41.7456C55.936 41.9282 55.5333 43.1204 56.6449 43.2439C57.9553 43.3836 60.5385 43.3299 60.5385 43.3299C60.5385 43.3299 62.9767 43.6682 62.5846 44.1247C62.1926 44.5812 58.4494 44.6188 58.1648 44.6617C57.8801 44.7047 56.6127 44.6617 56.6825 45.6928C56.7201 46.2782 57.8157 46.6488 59.2335 46.6004C60.4365 46.5628 64.1689 46.4877 64.6039 47.1697C65.0389 47.8517 64.7435 48.3458 64.3998 48.5177C63.308 48.7861 62.1963 48.9657 61.0755 49.0547C60.5815 49.0547 59.9316 49.9677 61.1346 50.2577C62.445 50.5799 63.5513 50.3168 64.6845 50.3168C65.8176 50.3168 67.2676 50.4081 70.4469 49.1621C70.4469 49.1621 72.5951 48.1901 75.5166 49.8656L78.379 45.1289Z" fill="#D4AB93"/>
<path id="Vector_84" d="M62.8047 56.4819C62.8047 56.5624 59.3837 57.0189 55.1411 57.556C50.8985 58.093 47.4453 58.426 47.4399 58.3454C47.4346 58.2648 50.8609 57.8084 55.1089 57.2713C59.3569 56.7343 62.7993 56.4067 62.8047 56.4819Z" fill="#465159"/>
<path id="Vector_85" d="M62.042 103.973C62.0971 103.866 62.16 103.764 62.23 103.666L62.8207 102.812C63.3577 102.077 64.072 100.997 64.9689 99.644C65.8657 98.2906 66.8593 96.6687 67.928 94.8106C68.9967 92.9524 70.0761 90.9063 71.1878 88.6991C72.2995 86.4918 73.2071 84.349 74.018 82.3781C74.8289 80.4071 75.4841 78.6188 76.0051 77.0829C76.526 75.5469 76.9341 74.3225 77.1973 73.4578C77.3262 73.0551 77.4282 72.7275 77.5088 72.4697C77.5424 72.3536 77.5856 72.2404 77.6377 72.1313C77.6266 72.2516 77.6032 72.3703 77.5679 72.4858C77.498 72.7436 77.4121 73.0765 77.2993 73.4901C77.0684 74.3654 76.6978 75.6382 76.193 77.1473C75.6882 78.6564 75.0438 80.4931 74.2543 82.4748C73.4649 84.4564 72.5197 86.61 71.4402 88.8226C70.3608 91.0352 69.2276 93.1189 68.1535 94.9395C67.0794 96.76 66.043 98.4034 65.1354 99.7406C64.2278 101.078 63.4705 102.141 62.9227 102.855L62.2944 103.682C62.2221 103.789 62.1374 103.886 62.042 103.973Z" fill="#465159"/>
<path id="Vector_86" d="M43.8363 117.903C43.8291 117.803 43.8291 117.703 43.8363 117.603C43.8363 117.388 43.8846 117.098 43.9169 116.743C43.9974 115.997 44.1532 114.907 44.3948 113.548C45.0807 109.892 46.0411 106.292 47.268 102.78V102.834C47.1498 100.965 47.0263 98.9511 46.9028 96.862C46.8384 95.8255 46.7793 94.8051 46.7202 93.8331V93.8868C44.3304 89.2306 42.3541 85.0578 41.0061 82.0289C40.3294 80.5198 39.8139 79.29 39.4702 78.4415C39.3144 78.0333 39.1855 77.7057 39.0889 77.4587C39.0495 77.3489 39.0207 77.2356 39.0029 77.1204C39.067 77.2241 39.121 77.3338 39.164 77.448L39.5883 78.4093C39.9642 79.2417 40.5013 80.4608 41.1994 81.9591C42.5904 84.9612 44.5989 89.1232 46.9887 93.774V93.8009C47.0478 94.7729 47.1122 95.7933 47.1713 96.8298C47.3002 98.9189 47.4184 100.933 47.5258 102.802V102.829C46.2929 106.323 45.3042 109.9 44.5667 113.532C44.2982 114.885 44.1209 115.97 44.0296 116.711L43.9007 117.565C43.8991 117.681 43.8773 117.795 43.8363 117.903Z" fill="#465159"/>
<path id="Vector_87" d="M58.4224 113.521C58.314 115.176 58.115 116.823 57.8263 118.456C57.6284 120.1 57.338 121.732 56.9563 123.343C57.0617 121.69 57.2607 120.044 57.5524 118.413C57.7507 116.768 58.0411 115.134 58.4224 113.521Z" fill="#465159"/>
<path id="Vector_88" d="M74.3349 67.9316C74.2228 67.8164 74.127 67.6863 74.0503 67.545C73.8838 67.2872 73.6583 66.9005 73.4005 66.4118C72.7369 65.1296 72.2095 63.7815 71.827 62.3894C71.441 60.9984 71.1998 59.5712 71.1073 58.1306C71.0751 57.5936 71.0697 57.1317 71.0805 56.8256C71.0731 56.6651 71.0876 56.5043 71.1234 56.3477C71.1718 56.3477 71.1879 57.0243 71.306 58.1145C71.5958 60.9583 72.3638 63.7326 73.5777 66.3205C73.8577 66.8441 74.1105 67.3819 74.3349 67.9316Z" fill="#465159"/>
<g id="Group_5" opacity="0.3">
<path id="Vector_89" d="M62.6328 102.947C63.1855 103.18 63.7849 103.281 64.3834 103.242C64.9819 103.203 65.5631 103.024 66.0806 102.721C67.1086 102.102 68.009 101.293 68.7336 100.337C74.3709 93.4903 77.1829 84.7506 76.5959 75.9014C73.4235 85.3413 68.8681 94.2584 63.0786 102.361" fill="#1B232E"/>
</g>
<g id="Group_6" opacity="0.3">
<path id="Vector_90" d="M39.4435 78.2374C38.9742 77.6761 38.3725 77.2405 37.6927 76.97C37.3767 76.8459 37.0248 76.8494 36.7112 76.9796C36.3977 77.1099 36.1469 77.3567 36.0118 77.6682C35.9535 78.0322 36.002 78.4053 36.1514 78.7423C37.1879 81.798 38.2566 84.9236 40.2866 87.4316C40.6523 87.8375 41.0823 88.1804 41.5594 88.4466C42.0427 88.7527 43.3585 89.0212 43.5411 88.5003C43.6354 88.0577 43.6354 87.6003 43.5411 87.1577C43.5411 87.1577 40.6464 81.2502 39.2448 78.2159" fill="#1B232E"/>
</g>
<g id="Group_7" opacity="0.3">
<path id="Vector_91" d="M85.2584 56.3154C86.5505 56.6201 87.8983 56.5961 89.1788 56.2456C87.1649 54.7204 84.5387 54.3874 82.0361 54.0491L85.2584 56.3154Z" fill="#1B232E"/>
</g>
<path id="Vector_92" d="M93.5502 56.541C93.1341 56.5824 92.715 56.5824 92.2989 56.541L89.3022 56.4551L86.3055 56.4067C85.8889 56.4247 85.4716 56.4013 85.0596 56.3369C85.4663 56.2436 85.8829 56.2003 86.3001 56.208C87.0681 56.1704 88.1314 56.149 89.3076 56.1758C90.4837 56.2027 91.547 56.2725 92.315 56.3423C92.7331 56.3599 93.1477 56.4266 93.5502 56.541Z" fill="#465159"/>
<path id="Vector_93" d="M37.929 92.6947C37.929 92.6624 38.2136 92.8558 38.6217 93.1673C39.1306 93.5847 39.6899 93.9366 40.2866 94.2145C40.8828 94.473 41.5397 94.5586 42.1823 94.4615C42.671 94.3702 42.9395 94.1876 42.9664 94.2306C42.9932 94.2736 42.7462 94.5045 42.2253 94.6549C41.5418 94.8217 40.8223 94.7575 40.1792 94.4723C39.5558 94.1855 38.9856 93.7951 38.4928 93.3176C38.1277 92.9363 37.929 92.6947 37.929 92.6947Z" fill="#465159"/>
<path id="Vector_94" opacity="0.3" d="M58.4225 114.536L61.0647 123.215H58.6695L57.5579 119.31L58.4225 114.536Z" fill="#1B232E"/>
</g>
</g>
</g>
</g>
</g>
</g>
</svg>
